<svg width="200" height="48" viewBox="0 0 200 48" fill="none" xmlns="http://www.w3.org/2000/svg">
  <rect x="2" y="6" width="36" height="36" rx="10" fill="#FF6B00"/>
  <path d="M20 13c-4.5 0-7.5 3-7.5 7 0 3 1.8 5.5 4.3 6.7v2a1.5 1.5 0 0 0 1.5 1.5h3.4a1.5 1.5 0 0 0 1.5-1.5v-2c2.5-1.2 4.3-3.7 4.3-6.7 0-4-3-7-7.5-7z" fill="white"/>
  <rect x="16" y="33" width="8" height="2" rx="1" fill="white"/>
  <rect x="17.5" y="36.5" width="5" height="2" rx="1" fill="white"/>
  <text x="48" y="31" font-family="Inter, system-ui, sans-serif" font-weight="800" font-size="22" fill="currentColor">Flavourly</text>
</svg>
